<?xml version="1.0" encoding="UTF-8"?>
<svg width="438px" height="98px" viewBox="0 0 438 98" version="1.1" xmlns="http://www.w3.org/2000/svg" xmlns:xlink="http://www.w3.org/1999/xlink">
    <!-- Generator: Sketch 46.2 (44496) - http://www.bohemiancoding.com/sketch -->
    <title>eShopWorld Sell Global Feel Local logo</title>
    <desc>Created with Sketch.</desc>
    <defs></defs>
    <g id="Page-1" stroke="none" stroke-width="1" fill="none" fill-rule="evenodd">
        <g id="eShopWorld-Sell-Global-Feel-Local-logo" fill="#ffffff">
            <path d="M79.898,54.504 C79.898,62.533 74.105,69.29 62.319,69.29 C55.855,69.29 49.549,68.347 45.401,64.43 C45.186,64.228 46.684,63.089 47.773,61.65 C48.932,60.134 50.187,58.574 50.378,58.706 C53.58,60.954 57.507,61.756 62.559,61.756 C68.005,61.756 71.676,59.566 71.676,54.693 C71.676,43.898 45.78,51.255 45.78,33.193 C45.78,24.787 52.473,19.147 62.22,19.147 C68.717,19.147 72.732,21.06 77.313,24.122 L73.396,30.425 C69.097,27.462 65.847,26.416 61.932,26.416 C56.676,26.416 54,29.09 54,32.815 C54,44.858 79.898,36.063 79.898,54.504" id="Fill-1"></path>
            <path d="M91.818,21.446 C94.777,20.199 98.312,19.248 102.616,19.248 C114.938,19.248 122.679,23.452 122.679,35.584 L122.679,67.406 L114.464,67.406 L114.464,36.063 C114.464,28.799 109.11,26.794 101.939,26.794 C95.729,26.794 91.908,29.568 91.908,33.867 L91.908,67.406 L83.694,67.406 L83.694,0.518 L91.818,0.518 L91.818,21.446 Z" id="Fill-2"></path>
            <path d="M149.135,61.002 C158.975,61.002 163.082,52.02 163.082,43.898 C163.082,35.586 158.975,26.988 149.135,26.988 C139.295,26.988 135.09,35.491 135.09,43.898 C135.09,52.304 139.295,61.002 149.135,61.002 M149.037,68.742 C134.324,68.742 126.966,56.607 126.966,43.898 C126.966,31.189 134.324,19.249 149.037,19.249 C163.654,19.249 171.014,31.189 171.014,43.898 C171.014,56.607 163.564,68.742 149.037,68.742" id="Fill-3"></path>
            <path d="M196.85,27.082 C185.384,27.082 183.854,35.012 183.854,46.86 L183.854,58.903 C206.784,65.017 209.364,52.972 209.364,43.037 C209.364,37.401 208.508,27.082 196.85,27.082 M175.635,86.516 L175.635,20.582 L183.854,20.582 L183.854,24.598 C184.526,23.545 185.574,22.687 186.813,21.923 C189.016,20.485 192.741,19.25 198.758,19.25 C209.938,19.25 217.773,27.082 217.773,43.707 C217.773,60.045 209.938,67.499 196.85,68.549 C193.313,68.84 189.97,68.456 187.58,67.979 C186.434,67.785 185.476,67.594 184.809,67.406 C184.143,67.214 183.854,73.614 183.854,86.516 L175.635,86.516" id="Fill-4"></path>
            <path d="M33.037,67.116 C38.219,64.45 41.999,61.686 44.395,58.434 C44.474,58.33 45.532,56.735 45.51,56.589 C45.463,56.276 43.895,55.066 43.599,54.901 C43.266,54.927 42.287,55.94 41.622,56.432 C41.124,56.803 38.314,58.942 33.254,60.832 C30.547,61.846 24.204,62.666 21.18,61.952 C18.668,61.358 15.97,60.246 14.141,58.215 C9.23,52.762 11.545,42.86 11.557,42.817 C11.926,41.283 12.463,39.754 13.169,38.27 C14.961,34.5 18.245,31.99 19.589,31.273 C20.947,30.546 22.468,30.18 24.106,30.18 C25.498,30.18 26.636,30.59 27.483,31.408 C28.34,32.22 28.836,33.291 28.772,34.574 C28.676,36.415 28.198,38.264 26.526,39.877 C26.039,40.345 23.596,42.899 18.762,44.364 C17.581,44.725 16.846,45.122 16.451,45.36 C13.914,46.884 14.446,49.273 14.618,49.919 C15.067,49.901 16.885,49.735 18.181,49.505 C19.067,49.345 23.527,48.57 26.323,47.663 C28.922,46.815 31.11,45.912 33.168,44.561 C35.189,43.229 36.831,41.588 38.043,39.679 C39.244,37.805 39.849,35.54 39.849,32.954 C39.849,31.124 39.505,29.512 38.829,28.155 C38.146,26.794 37.197,25.63 36.006,24.697 C34.811,23.753 33.373,23.042 31.737,22.583 C30.096,22.122 28.283,21.888 26.352,21.888 C22.315,21.888 18.633,22.728 15.404,24.394 C12.159,26.053 9.369,28.278 7.118,31 C4.857,33.726 3.091,36.863 1.857,40.321 C0.625,43.783 0,47.354 0,50.935 C0,53.742 0.399,56.33 1.184,58.633 C1.963,60.91 3.19,62.867 4.829,64.446 C6.462,66.03 8.578,67.273 11.107,68.149 C13.641,69.024 16.745,69.468 20.329,69.468 C21.448,69.468 22.73,69.39 24.146,69.245 C25.542,69.098 26.983,68.889 28.414,68.622 C29.706,68.381 31.765,67.769 33.037,67.116" id="Fill-5"></path>
            <polyline id="Fill-6" points="226.538 20.582 238.196 60.146 250.233 20.582 258.549 20.582 270.205 60.146 282.244 20.582 290.555 20.582 276.227 67.404 264.184 67.404 254.246 34.246 244.217 67.404 232.174 67.404 217.844 20.582 226.538 20.582"></polyline>
            <path d="M370.948,26.507 C370.665,26.415 370.281,26.415 369.801,26.415 C369.035,26.415 367.983,26.32 366.743,26.603 C355.66,28.137 355.279,36.257 355.279,38.836 L355.279,67.406 L347.06,67.406 L347.06,20.582 L355.279,20.582 L355.279,24.026 C357.857,21.251 360.434,19.437 367.983,19.15 C369.988,19.15 371.714,19.342 373.335,19.82 L370.948,26.507" id="Fill-7"></path>
            <path d="M385.984,57.179 C385.984,59.853 386.938,61.196 390.282,61.196 C392.291,61.196 393.102,61.018 394.626,60.736 C395.314,62.347 395.564,62.449 396.432,63.886 C397.315,65.349 399.245,67.23 399.245,67.23 C397.12,67.914 392.328,68.975 387.131,68.742 C381.021,68.47 377.768,64.059 377.768,58.328 L377.768,0.517 L385.984,0.517 L385.984,57.179" id="Fill-8"></path>
            <path d="M429.597,45.903 C429.597,33.962 428.067,27.079 416.603,27.079 C406.855,27.079 404.087,34.153 404.087,43.041 C404.087,55.364 408.958,60.904 419.375,60.904 C425.869,60.904 428.165,60.333 429.597,59.278 L429.597,45.903 Z M437.817,66.447 C434.279,67.979 426.73,68.743 420.808,68.743 C403.707,68.743 395.678,60.812 395.678,43.707 C395.678,27.079 403.51,19.249 414.691,19.249 C420.808,19.249 424.438,20.484 426.636,21.923 C427.876,22.686 428.931,23.547 429.597,24.597 L429.597,0.519 L437.817,0.519 L437.817,66.447 L437.817,66.447 Z" id="Fill-9"></path>
            <path d="M331.691,24.808 C328.81,27.779 326.093,27.642 322.336,27.691 C319.951,27.72 318.204,30.279 317.063,32.007 C316.026,33.577 315.943,35.09 317.684,35.977 C318.371,36.329 319.311,36.371 320.059,36.169 C320.702,35.997 321.55,34.652 321.713,34.613 C321.093,34.476 320.478,34.345 319.861,34.21 C322.227,37.169 310.838,46.185 319.122,47.823 C320.891,48.171 324.189,47.186 325.141,45.55 C325.611,44.738 324.947,40.766 326.28,44.344 C326.758,45.636 326.793,47.1 328.017,47.873 C328.883,48.425 330.041,48.069 330.72,47.397 C331.676,46.449 332.066,45.418 332.508,44.141 C333.146,42.314 337.001,39.204 339.115,41.39 C340.167,42.475 343.353,41.112 342.196,39.914 C340.105,37.748 337.121,38.028 334.463,39.107 C333.185,39.629 331.555,40.266 330.616,41.345 C329.303,42.856 329.334,45.004 327.911,46.423 C328.81,46.263 329.713,46.103 330.616,45.947 C328.883,44.844 330.025,41.118 327.41,40.549 C325.667,40.172 322.848,40.299 321.93,42.199 C321.797,42.465 321.506,45.058 321.64,45.021 C317.578,46.153 320.776,41.288 321.73,40.198 C323.157,38.561 324.474,34.648 322.945,32.732 C322.512,32.193 321.715,32.183 321.101,32.333 C319.646,32.687 319.329,33.469 318.344,34.544 C319.009,34.304 319.674,34.061 320.338,33.823 C318.606,33.784 322.359,30.203 323.64,30.203 C325.123,30.205 326.616,30.095 328.066,29.777 C330.663,29.21 332.677,27.665 334.501,25.779 C335.974,24.263 332.726,23.741 331.691,24.808" id="Fill-10"></path>
            <path d="M332.012,61.344 C331.5,61.401 333.768,57.122 333.881,56.886 C334.568,55.441 334.225,53.656 333.71,52.249 C332.763,49.634 328.908,49.301 326.632,49.258 C323.488,49.192 313.783,51.306 317.264,56.686 C318.323,58.328 319.932,58.447 321.3,59.833 C322.86,61.412 322.82,63.117 324.721,64.395 C326.796,65.785 315.783,67.073 314.855,67.042 C311.222,66.917 307.773,65.615 304.622,63.903 C299.023,60.862 295.319,55.343 293.469,49.395 C292.451,46.135 292.501,42.673 292.824,39.308 C292.901,38.515 294.884,30.692 295.177,30.645 C294.669,30.408 294.166,30.168 293.66,29.929 C294.338,32.265 293.969,34.986 294.622,37.418 C295.007,38.855 296.111,40.346 296.705,41.617 C297.587,43.488 296.865,46.113 296.537,48.074 C295.544,54.048 300.57,57.738 304.692,60.736 C309.974,64.575 309.576,54.997 309.477,52.959 C309.36,50.513 308.633,47.408 306.554,45.818 C301.275,41.776 301.74,38.382 307.263,34.424 C308.24,33.721 316.076,29.629 312.391,27.244 C310.085,25.757 305.916,26.561 303.273,26.317 C297.201,25.751 305.151,21.387 305.52,21.182 C308.082,19.784 310.982,19.483 313.837,19.3 C324.756,18.591 334.154,25.405 337.997,35.387 C341.211,43.748 338.99,56.901 330.745,61.802 C328.788,62.963 331.619,64.014 332.944,63.226 C346.668,55.071 345.097,32.68 333.854,23.399 C327.137,17.857 319.231,16.237 310.701,17.279 C306.593,17.783 298.438,20.437 297.718,25.305 C297.485,26.868 299.043,28.061 300.392,28.323 C302.824,28.8 312.768,28.685 306.545,32.072 C301.542,34.793 296.768,39.567 299.888,45.486 C300.253,46.189 302.448,46.668 302.865,46.871 C306.381,48.577 306.15,53.793 306.197,56.991 C306.229,59.36 306.837,58.41 305.314,57.492 C302.235,55.627 300.853,53.095 299.985,49.623 C299.113,46.131 301.148,42.997 299.454,39.402 C297.714,35.704 298.098,32.701 297.025,29.027 C296.85,28.43 296.053,28.221 295.507,28.307 C292.167,28.835 291.166,33.05 290.242,35.829 C288.354,41.531 289.06,47.89 291.178,53.394 C295.367,64.288 306.689,69.771 317.801,69.364 C321.55,69.228 326.308,68.469 328.267,65.263 C328.501,64.877 328.449,64.014 327.867,63.239 C327.405,62.629 326.82,62.101 326.226,61.315 C325.053,59.775 323.72,57.775 323.129,57.393 C320.057,55.404 321.433,51.987 324.764,51.647 C330.442,51.072 331.678,55.071 329.028,59.458 C327.539,61.928 329.188,63.952 331.682,63.684 C333.507,63.485 334.314,61.094 332.012,61.344" id="Fill-11"></path>
            <path d="M286.755,88.07 C286.563,87.827 286.303,87.648 285.974,87.531 C285.646,87.416 285.335,87.357 285.042,87.357 C284.87,87.357 284.693,87.378 284.511,87.418 C284.329,87.459 284.157,87.521 283.996,87.607 C283.834,87.693 283.702,87.807 283.602,87.949 C283.5,88.09 283.45,88.262 283.45,88.464 C283.45,88.787 283.571,89.035 283.813,89.207 C284.057,89.379 284.362,89.525 284.73,89.646 C285.1,89.768 285.496,89.889 285.921,90.01 C286.346,90.131 286.742,90.304 287.111,90.525 C287.479,90.748 287.785,91.047 288.028,91.42 C288.271,91.794 288.392,92.295 288.392,92.921 C288.392,93.518 288.28,94.037 288.059,94.482 C287.836,94.928 287.535,95.296 287.156,95.589 C286.777,95.883 286.338,96.1 285.838,96.24 C285.337,96.383 284.81,96.453 284.253,96.453 C283.556,96.453 282.909,96.348 282.313,96.135 C281.717,95.922 281.161,95.579 280.646,95.104 L282.328,93.254 C282.57,93.578 282.876,93.828 283.245,94.005 C283.614,94.182 283.996,94.27 284.39,94.27 C284.582,94.27 284.776,94.248 284.974,94.201 C285.171,94.156 285.348,94.088 285.504,93.997 C285.66,93.906 285.787,93.79 285.883,93.648 C285.979,93.508 286.027,93.34 286.027,93.148 C286.027,92.825 285.903,92.57 285.655,92.383 C285.408,92.195 285.097,92.037 284.724,91.905 C284.35,91.773 283.945,91.643 283.511,91.512 C283.076,91.38 282.672,91.203 282.298,90.98 C281.924,90.758 281.613,90.465 281.365,90.102 C281.118,89.737 280.994,89.258 280.994,88.661 C280.994,88.085 281.107,87.58 281.335,87.145 C281.563,86.711 281.866,86.347 282.245,86.054 C282.624,85.761 283.061,85.541 283.556,85.395 C284.051,85.248 284.562,85.174 285.087,85.174 C285.693,85.174 286.279,85.26 286.846,85.432 C287.411,85.604 287.922,85.893 288.377,86.297 L286.755,88.07" id="Fill-12"></path>
            <path d="M294.91,91.662 C294.92,91.279 294.794,90.95 294.531,90.678 C294.269,90.404 293.93,90.268 293.516,90.268 C293.263,90.268 293.04,90.309 292.849,90.389 C292.656,90.471 292.492,90.574 292.355,90.7 C292.22,90.826 292.113,90.973 292.037,91.14 C291.962,91.307 291.919,91.48 291.908,91.662 L294.91,91.662 Z M296.835,94.906 C296.472,95.371 296.012,95.73 295.456,95.982 C294.9,96.236 294.324,96.362 293.728,96.362 C293.161,96.362 292.629,96.271 292.128,96.09 C291.628,95.907 291.193,95.647 290.824,95.309 C290.456,94.971 290.165,94.563 289.953,94.088 C289.741,93.613 289.635,93.082 289.635,92.496 C289.635,91.91 289.741,91.38 289.953,90.904 C290.165,90.43 290.456,90.023 290.824,89.685 C291.193,89.346 291.628,89.086 292.128,88.904 C292.629,88.722 293.161,88.631 293.728,88.631 C294.253,88.631 294.73,88.722 295.16,88.904 C295.59,89.086 295.953,89.346 296.252,89.685 C296.55,90.023 296.779,90.43 296.941,90.904 C297.104,91.38 297.185,91.91 297.185,92.496 L297.185,93.209 L291.908,93.209 C292,93.644 292.196,93.99 292.5,94.248 C292.803,94.505 293.177,94.634 293.622,94.634 C293.995,94.634 294.312,94.551 294.569,94.384 C294.827,94.217 295.052,94.002 295.244,93.739 L296.835,94.906 L296.835,94.906 Z" id="Fill-13"></path>
            <polygon id="Fill-14" points="298.594 96.18 300.867 96.18 300.867 84.72 298.594 84.72"></polygon>
            <polygon id="Fill-15" points="302.535 96.18 304.809 96.18 304.809 84.72 302.535 84.72"></polygon>
            <path d="M320.938,95.422 C320.241,95.786 319.514,96.049 318.756,96.211 C317.998,96.372 317.225,96.453 316.437,96.453 C315.598,96.453 314.824,96.322 314.117,96.059 C313.409,95.797 312.798,95.42 312.282,94.93 C311.768,94.439 311.365,93.846 311.077,93.148 C310.789,92.451 310.646,91.673 310.646,90.813 C310.646,89.955 310.789,89.176 311.077,88.479 C311.365,87.781 311.768,87.188 312.282,86.697 C312.798,86.208 313.409,85.832 314.117,85.568 C314.824,85.306 315.598,85.174 316.437,85.174 C317.295,85.174 318.086,85.278 318.809,85.485 C319.531,85.692 320.165,86.049 320.711,86.554 L319.044,88.373 C318.72,88.039 318.356,87.787 317.952,87.615 C317.548,87.443 317.043,87.357 316.437,87.357 C315.931,87.357 315.474,87.443 315.064,87.615 C314.655,87.787 314.304,88.027 314.011,88.335 C313.718,88.644 313.493,89.01 313.336,89.434 C313.18,89.859 313.102,90.318 313.102,90.813 C313.102,91.319 313.18,91.781 313.336,92.201 C313.493,92.62 313.718,92.984 314.011,93.293 C314.304,93.601 314.655,93.841 315.064,94.012 C315.474,94.185 315.931,94.27 316.437,94.27 C316.951,94.27 317.396,94.212 317.771,94.096 C318.145,93.98 318.442,93.861 318.665,93.739 L318.665,91.996 L316.739,91.996 L316.739,89.813 L320.938,89.813 L320.938,95.422" id="Fill-16"></path>
            <polygon id="Fill-17" points="322.758 96.18 325.031 96.18 325.031 84.72 322.758 84.72"></polygon>
            <path d="M328.67,92.496 C328.67,93.053 328.829,93.502 329.147,93.846 C329.466,94.189 329.913,94.361 330.489,94.361 C331.065,94.361 331.512,94.189 331.83,93.846 C332.148,93.502 332.308,93.053 332.308,92.496 C332.308,91.941 332.148,91.49 331.83,91.147 C331.512,90.804 331.065,90.632 330.489,90.632 C329.913,90.632 329.466,90.804 329.147,91.147 C328.829,91.49 328.67,91.941 328.67,92.496 Z M326.396,92.496 C326.396,91.91 326.502,91.38 326.714,90.904 C326.927,90.43 327.217,90.023 327.586,89.685 C327.955,89.346 328.39,89.086 328.89,88.904 C329.39,88.722 329.923,88.631 330.489,88.631 C331.055,88.631 331.588,88.722 332.088,88.904 C332.589,89.086 333.022,89.346 333.392,89.685 C333.761,90.023 334.052,90.43 334.264,90.904 C334.476,91.38 334.582,91.91 334.582,92.496 C334.582,93.082 334.476,93.613 334.264,94.088 C334.052,94.563 333.761,94.971 333.392,95.309 C333.022,95.647 332.589,95.907 332.088,96.09 C331.588,96.271 331.055,96.362 330.489,96.362 C329.923,96.362 329.39,96.271 328.89,96.09 C328.39,95.907 327.955,95.647 327.586,95.309 C327.217,94.971 326.927,94.563 326.714,94.088 C326.502,93.613 326.396,93.082 326.396,92.496 L326.396,92.496 Z" id="Fill-18"></path>
            <path d="M338.22,92.496 C338.22,93.053 338.379,93.502 338.697,93.846 C339.016,94.189 339.463,94.361 340.039,94.361 C340.615,94.361 341.063,94.189 341.381,93.846 C341.699,93.502 341.858,93.053 341.858,92.496 C341.858,91.941 341.699,91.49 341.381,91.147 C341.063,90.804 340.615,90.632 340.039,90.632 C339.463,90.632 339.016,90.804 338.697,91.147 C338.379,91.49 338.22,91.941 338.22,92.496 Z M336.128,84.72 L338.402,84.72 L338.402,89.602 L338.433,89.602 C338.695,89.247 339.031,88.997 339.44,88.851 C339.85,88.704 340.292,88.631 340.767,88.631 C341.292,88.631 341.762,88.739 342.177,88.957 C342.591,89.174 342.942,89.465 343.23,89.828 C343.519,90.192 343.74,90.609 343.897,91.079 C344.054,91.549 344.132,92.041 344.132,92.557 C344.132,93.113 344.046,93.623 343.874,94.088 C343.702,94.553 343.458,94.955 343.14,95.293 C342.821,95.632 342.439,95.895 341.995,96.082 C341.55,96.269 341.055,96.362 340.509,96.362 C340.246,96.362 339.999,96.326 339.767,96.256 C339.533,96.186 339.319,96.094 339.122,95.982 C338.925,95.872 338.753,95.748 338.606,95.611 C338.46,95.475 338.341,95.342 338.25,95.21 L338.22,95.21 L338.22,96.18 L336.128,96.18 L336.128,84.72 L336.128,84.72 Z" id="Fill-19"></path>
            <path d="M349.529,92.951 C349.357,92.951 349.143,92.959 348.885,92.975 C348.627,92.989 348.38,93.032 348.143,93.104 C347.904,93.174 347.702,93.279 347.536,93.422 C347.369,93.563 347.286,93.76 347.286,94.012 C347.286,94.285 347.401,94.487 347.635,94.619 C347.867,94.75 348.109,94.816 348.362,94.816 C348.584,94.816 348.799,94.785 349.006,94.725 C349.213,94.664 349.397,94.578 349.56,94.467 C349.721,94.355 349.85,94.215 349.946,94.043 C350.042,93.871 350.09,93.669 350.09,93.437 L350.09,92.951 L349.529,92.951 Z M350.09,95.256 L350.06,95.256 C349.808,95.649 349.471,95.933 349.052,96.104 C348.632,96.275 348.19,96.362 347.726,96.362 C347.382,96.362 347.051,96.314 346.732,96.219 C346.414,96.122 346.134,95.979 345.891,95.786 C345.648,95.594 345.456,95.356 345.315,95.074 C345.173,94.791 345.103,94.463 345.103,94.088 C345.103,93.664 345.181,93.305 345.338,93.012 C345.494,92.719 345.706,92.477 345.975,92.284 C346.242,92.092 346.548,91.943 346.892,91.837 C347.235,91.73 347.591,91.652 347.96,91.602 C348.329,91.552 348.698,91.521 349.067,91.512 C349.436,91.501 349.776,91.496 350.09,91.496 C350.09,91.092 349.946,90.771 349.658,90.533 C349.37,90.296 349.029,90.178 348.635,90.178 C348.261,90.178 347.92,90.256 347.611,90.412 C347.303,90.568 347.028,90.783 346.785,91.057 L345.572,89.813 C345.997,89.419 346.492,89.123 347.059,88.926 C347.624,88.729 348.21,88.631 348.816,88.631 C349.483,88.631 350.032,88.715 350.462,88.881 C350.891,89.048 351.234,89.293 351.492,89.616 C351.75,89.939 351.93,90.336 352.03,90.807 C352.132,91.275 352.183,91.819 352.183,92.436 L352.183,96.18 L350.09,96.18 L350.09,95.256 L350.09,95.256 Z" id="Fill-20"></path>
            <polygon id="Fill-21" points="353.638 96.18 355.911 96.18 355.911 84.72 353.638 84.72"></polygon>
            <polyline id="Fill-22" points="358.125 93.725 360.308 93.725 358.943 98 357.003 98 358.125 93.725"></polyline>
            <polyline id="Fill-23" points="366.901 85.447 374.102 85.447 374.102 87.631 369.266 87.631 369.266 89.813 373.738 89.813 373.738 91.996 369.266 91.996 369.266 96.18 366.901 96.18 366.901 85.447"></polyline>
            <path d="M380.56,91.662 C380.569,91.279 380.443,90.95 380.181,90.678 C379.918,90.404 379.579,90.268 379.165,90.268 C378.912,90.268 378.689,90.309 378.498,90.389 C378.306,90.471 378.142,90.574 378.005,90.7 C377.869,90.826 377.763,90.973 377.687,91.14 C377.611,91.307 377.568,91.48 377.558,91.662 L380.56,91.662 Z M382.484,94.906 C382.121,95.371 381.661,95.73 381.105,95.982 C380.55,96.236 379.974,96.362 379.377,96.362 C378.811,96.362 378.278,96.271 377.777,96.09 C377.277,95.907 376.843,95.647 376.474,95.309 C376.105,94.971 375.814,94.563 375.603,94.088 C375.391,93.613 375.284,93.082 375.284,92.496 C375.284,91.91 375.391,91.38 375.603,90.904 C375.814,90.43 376.105,90.023 376.474,89.685 C376.843,89.346 377.277,89.086 377.777,88.904 C378.278,88.722 378.811,88.631 379.377,88.631 C379.902,88.631 380.38,88.722 380.81,88.904 C381.239,89.086 381.603,89.346 381.901,89.685 C382.199,90.023 382.429,90.43 382.591,90.904 C382.753,91.38 382.834,91.91 382.834,92.496 L382.834,93.209 L377.558,93.209 C377.649,93.644 377.846,93.99 378.149,94.248 C378.452,94.505 378.826,94.634 379.271,94.634 C379.645,94.634 379.961,94.551 380.219,94.384 C380.477,94.217 380.701,94.002 380.894,93.739 L382.484,94.906 L382.484,94.906 Z" id="Fill-24"></path>
            <path d="M389.261,91.662 C389.271,91.279 389.145,90.95 388.882,90.678 C388.619,90.404 388.28,90.268 387.866,90.268 C387.613,90.268 387.391,90.309 387.199,90.389 C387.007,90.471 386.843,90.574 386.706,90.7 C386.57,90.826 386.464,90.973 386.388,91.14 C386.313,91.307 386.27,91.48 386.259,91.662 L389.261,91.662 Z M391.186,94.906 C390.822,95.371 390.362,95.73 389.807,95.982 C389.251,96.236 388.675,96.362 388.078,96.362 C387.512,96.362 386.979,96.271 386.479,96.09 C385.979,95.907 385.544,95.647 385.175,95.309 C384.807,94.971 384.516,94.563 384.304,94.088 C384.092,93.613 383.985,93.082 383.985,92.496 C383.985,91.91 384.092,91.38 384.304,90.904 C384.516,90.43 384.807,90.023 385.175,89.685 C385.544,89.346 385.979,89.086 386.479,88.904 C386.979,88.722 387.512,88.631 388.078,88.631 C388.604,88.631 389.081,88.722 389.511,88.904 C389.94,89.086 390.304,89.346 390.603,89.685 C390.9,90.023 391.13,90.43 391.292,90.904 C391.454,91.38 391.535,91.91 391.535,92.496 L391.535,93.209 L386.259,93.209 C386.351,93.644 386.547,93.99 386.851,94.248 C387.153,94.505 387.527,94.634 387.973,94.634 C388.346,94.634 388.662,94.551 388.92,94.384 C389.178,94.217 389.402,94.002 389.595,93.739 L391.186,94.906 L391.186,94.906 Z" id="Fill-25"></path>
            <polygon id="Fill-26" points="392.945 96.18 395.219 96.18 395.219 84.72 392.945 84.72"></polygon>
            <polyline id="Fill-27" points="401.722 85.447 404.086 85.447 404.086 93.997 408.468 93.997 408.468 96.18 401.722 96.18 401.722 85.447"></polyline>
            <path d="M411.484,92.496 C411.484,93.053 411.644,93.502 411.962,93.846 C412.28,94.189 412.728,94.361 413.304,94.361 C413.88,94.361 414.326,94.189 414.645,93.846 C414.963,93.502 415.122,93.053 415.122,92.496 C415.122,91.941 414.963,91.49 414.645,91.147 C414.326,90.804 413.88,90.632 413.304,90.632 C412.728,90.632 412.28,90.804 411.962,91.147 C411.644,91.49 411.484,91.941 411.484,92.496 Z M409.21,92.496 C409.21,91.91 409.316,91.38 409.528,90.904 C409.741,90.43 410.031,90.023 410.4,89.685 C410.77,89.346 411.204,89.086 411.704,88.904 C412.204,88.722 412.737,88.631 413.304,88.631 C413.869,88.631 414.402,88.722 414.902,88.904 C415.403,89.086 415.837,89.346 416.206,89.685 C416.575,90.023 416.866,90.43 417.078,90.904 C417.29,91.38 417.396,91.91 417.396,92.496 C417.396,93.082 417.29,93.613 417.078,94.088 C416.866,94.563 416.575,94.971 416.206,95.309 C415.837,95.647 415.403,95.907 414.902,96.09 C414.402,96.271 413.869,96.362 413.304,96.362 C412.737,96.362 412.204,96.271 411.704,96.09 C411.204,95.907 410.77,95.647 410.4,95.309 C410.031,94.971 409.741,94.563 409.528,94.088 C409.316,93.613 409.21,93.082 409.21,92.496 L409.21,92.496 Z" id="Fill-28"></path>
            <path d="M423.718,91.193 C423.606,91.031 423.45,90.896 423.248,90.791 C423.046,90.686 422.828,90.632 422.596,90.632 C422.02,90.632 421.572,90.804 421.254,91.147 C420.936,91.49 420.776,91.941 420.776,92.496 C420.776,93.053 420.936,93.502 421.254,93.846 C421.572,94.189 422.02,94.361 422.596,94.361 C422.849,94.361 423.065,94.306 423.248,94.194 C423.43,94.083 423.586,93.951 423.718,93.801 L425.219,95.377 C424.864,95.74 424.447,95.996 423.968,96.143 C423.487,96.289 423.03,96.362 422.596,96.362 C422.029,96.362 421.497,96.271 420.996,96.09 C420.496,95.907 420.062,95.647 419.692,95.309 C419.324,94.971 419.033,94.563 418.821,94.088 C418.609,93.613 418.503,93.082 418.503,92.496 C418.503,91.91 418.609,91.38 418.821,90.904 C419.033,90.43 419.324,90.023 419.692,89.685 C420.062,89.346 420.496,89.086 420.996,88.904 C421.497,88.722 422.029,88.631 422.596,88.631 C423.03,88.631 423.487,88.704 423.968,88.851 C424.447,88.997 424.864,89.252 425.219,89.616 L423.718,91.193" id="Fill-29"></path>
            <path d="M430.1,92.951 C429.928,92.951 429.713,92.959 429.455,92.975 C429.197,92.989 428.95,93.032 428.713,93.104 C428.475,93.174 428.272,93.279 428.106,93.422 C427.939,93.563 427.856,93.76 427.856,94.012 C427.856,94.285 427.972,94.487 428.205,94.619 C428.438,94.75 428.68,94.816 428.933,94.816 C429.154,94.816 429.369,94.785 429.576,94.725 C429.783,94.664 429.968,94.578 430.13,94.467 C430.291,94.355 430.42,94.215 430.517,94.043 C430.612,93.871 430.66,93.669 430.66,93.437 L430.66,92.951 L430.1,92.951 Z M430.66,95.256 L430.63,95.256 C430.378,95.649 430.041,95.933 429.622,96.104 C429.202,96.275 428.761,96.362 428.296,96.362 C427.952,96.362 427.621,96.314 427.303,96.219 C426.984,96.122 426.704,95.979 426.461,95.786 C426.219,95.594 426.026,95.356 425.886,95.074 C425.743,94.791 425.673,94.463 425.673,94.088 C425.673,93.664 425.751,93.305 425.908,93.012 C426.064,92.719 426.276,92.477 426.545,92.284 C426.813,92.092 427.118,91.943 427.462,91.837 C427.806,91.73 428.161,91.652 428.53,91.602 C428.899,91.552 429.269,91.521 429.638,91.512 C430.006,91.501 430.347,91.496 430.66,91.496 C430.66,91.092 430.517,90.771 430.229,90.533 C429.94,90.296 429.6,90.178 429.205,90.178 C428.831,90.178 428.49,90.256 428.182,90.412 C427.873,90.568 427.599,90.783 427.355,91.057 L426.143,89.813 C426.567,89.419 427.063,89.123 427.629,88.926 C428.194,88.729 428.78,88.631 429.387,88.631 C430.054,88.631 430.603,88.715 431.032,88.881 C431.461,89.048 431.805,89.293 432.063,89.616 C432.32,89.939 432.5,90.336 432.601,90.807 C432.702,91.275 432.753,91.819 432.753,92.436 L432.753,96.18 L430.66,96.18 L430.66,95.256 L430.66,95.256 Z" id="Fill-30"></path>
            <polygon id="Fill-31" points="434.208 96.18 436.481 96.18 436.481 84.72 434.208 84.72"></polygon>
        </g>
    </g>
</svg>
