<?xml version="1.0" encoding="UTF-8"?>
<svg width="438px" height="87px" viewBox="0 0 438 87" version="1.1" xmlns="http://www.w3.org/2000/svg" xmlns:xlink="http://www.w3.org/1999/xlink">
    <!-- Generator: Sketch 50 (54983) - http://www.bohemiancoding.com/sketch -->
    <title>eShopWorld_logo</title>
    <desc>Created with Sketch.</desc>
    <defs></defs>
    <g id="Page-1" stroke="none" stroke-width="1" fill="none" fill-rule="evenodd">
        <path d="M79.898,54.504 C79.898,62.533 74.105,69.29 62.319,69.29 C55.855,69.29 49.549,68.347 45.401,64.43 C45.186,64.228 46.684,63.089 47.773,61.65 C48.932,60.134 50.187,58.574 50.378,58.706 C53.58,60.954 57.507,61.756 62.559,61.756 C68.005,61.756 71.676,59.566 71.676,54.693 C71.676,43.898 45.78,51.255 45.78,33.193 C45.78,24.787 52.473,19.147 62.22,19.147 C68.717,19.147 72.732,21.06 77.313,24.122 L73.396,30.425 C69.097,27.462 65.847,26.416 61.932,26.416 C56.676,26.416 54,29.09 54,32.815 C54,44.858 79.898,36.063 79.898,54.504" id="Fill-1" fill="#414241" fill-rule="nonzero"></path>
        <path d="M91.818,0.518 L91.818,21.446 C94.777,20.199 98.312,19.248 102.616,19.248 C114.938,19.248 122.679,23.452 122.679,35.584 L122.679,67.406 L114.464,67.406 L114.464,36.063 C114.464,28.799 109.11,26.794 101.939,26.794 C95.729,26.794 91.908,29.568 91.908,33.867 L91.908,67.406 L83.694,67.406 L83.694,0.518 L91.818,0.518" id="Fill-2" fill="#414241" fill-rule="nonzero"></path>
        <path d="M149.135,61.002 C158.975,61.002 163.082,52.02 163.082,43.898 C163.082,35.586 158.975,26.988 149.135,26.988 C139.295,26.988 135.09,35.491 135.09,43.898 C135.09,52.304 139.295,61.002 149.135,61.002 M149.037,68.742 C134.324,68.742 126.966,56.607 126.966,43.898 C126.966,31.189 134.324,19.249 149.037,19.249 C163.654,19.249 171.014,31.189 171.014,43.898 C171.014,56.607 163.564,68.742 149.037,68.742" id="Fill-3" fill="#414241" fill-rule="nonzero"></path>
        <path d="M196.85,27.082 C185.384,27.082 183.854,35.012 183.854,46.86 L183.854,58.903 C206.784,65.017 209.364,52.972 209.364,43.037 C209.364,37.401 208.508,27.082 196.85,27.082 M175.635,86.516 L175.635,20.582 L183.854,20.582 L183.854,24.598 C184.526,23.545 185.574,22.687 186.813,21.923 C189.016,20.485 192.741,19.25 198.758,19.25 C209.938,19.25 217.773,27.082 217.773,43.707 C217.773,60.045 209.938,67.499 196.85,68.549 C193.313,68.84 189.97,68.456 187.58,67.979 C186.434,67.785 185.476,67.594 184.809,67.406 C184.143,67.214 183.854,73.614 183.854,86.516 L175.635,86.516" id="Fill-4" fill="#414241" fill-rule="nonzero"></path>
        <path d="M33.037,67.116 C38.219,64.45 41.999,61.686 44.395,58.434 C44.474,58.33 45.532,56.735 45.51,56.589 C45.463,56.276 43.895,55.066 43.599,54.901 C43.266,54.927 42.287,55.94 41.622,56.432 C41.124,56.803 38.314,58.942 33.254,60.832 C30.547,61.846 24.204,62.666 21.18,61.952 C18.668,61.358 15.97,60.246 14.141,58.215 C9.23,52.762 11.545,42.86 11.557,42.817 C11.926,41.283 12.463,39.754 13.169,38.27 C14.961,34.5 18.245,31.99 19.589,31.273 C20.947,30.546 22.468,30.18 24.106,30.18 C25.498,30.18 26.636,30.59 27.483,31.408 C28.34,32.22 28.836,33.291 28.772,34.574 C28.676,36.415 28.198,38.264 26.526,39.877 C26.039,40.345 23.596,42.899 18.762,44.364 C17.581,44.725 16.846,45.122 16.451,45.36 C13.914,46.884 14.446,49.273 14.618,49.919 C15.067,49.901 16.885,49.735 18.181,49.505 C19.067,49.345 23.527,48.57 26.323,47.663 C28.922,46.815 31.11,45.912 33.168,44.561 C35.189,43.229 36.831,41.588 38.043,39.679 C39.244,37.805 39.849,35.54 39.849,32.954 C39.849,31.124 39.505,29.512 38.829,28.155 C38.146,26.794 37.197,25.63 36.006,24.697 C34.811,23.753 33.373,23.042 31.737,22.583 C30.096,22.122 28.283,21.888 26.352,21.888 C22.315,21.888 18.633,22.728 15.404,24.394 C12.159,26.053 9.369,28.278 7.118,31 C4.857,33.726 3.091,36.863 1.857,40.321 C0.625,43.783 0,47.354 0,50.935 C0,53.742 0.399,56.33 1.184,58.633 C1.963,60.91 3.19,62.867 4.829,64.446 C6.462,66.03 8.578,67.273 11.107,68.149 C13.641,69.024 16.745,69.468 20.329,69.468 C21.448,69.468 22.73,69.39 24.146,69.245 C25.542,69.098 26.983,68.889 28.414,68.622 C29.706,68.381 31.765,67.769 33.037,67.116" id="Fill-5" fill="#D1272D" fill-rule="nonzero"></path>
        <polyline id="Fill-6" fill="#D1272D" fill-rule="nonzero" points="226.538 20.582 238.196 60.146 250.233 20.582 258.549 20.582 270.205 60.146 282.244 20.582 290.555 20.582 276.227 67.404 264.184 67.404 254.246 34.246 244.217 67.404 232.174 67.404 217.844 20.582 226.538 20.582"></polyline>
        <path d="M370.948,26.507 C370.665,26.415 370.281,26.415 369.801,26.415 C369.035,26.415 367.983,26.32 366.743,26.603 C355.66,28.137 355.279,36.257 355.279,38.836 L355.279,67.406 L347.06,67.406 L347.06,20.582 L355.279,20.582 L355.279,24.026 C357.857,21.251 360.434,19.437 367.983,19.15 C369.988,19.15 371.714,19.342 373.335,19.82 L370.948,26.507" id="Fill-7" fill="#D1272D" fill-rule="nonzero"></path>
        <path d="M385.984,57.179 C385.984,59.853 386.938,61.196 390.282,61.196 C392.291,61.196 393.102,61.018 394.626,60.736 C395.314,62.347 395.564,62.449 396.432,63.886 C397.315,65.349 399.245,67.23 399.245,67.23 C397.12,67.914 392.328,68.975 387.131,68.742 C381.021,68.47 377.768,64.059 377.768,58.328 L377.768,0.517 L385.984,0.517 L385.984,57.179" id="Fill-8" fill="#D1272D" fill-rule="nonzero"></path>
        <path d="M429.597,45.903 C429.597,33.962 428.067,27.079 416.603,27.079 C406.855,27.079 404.087,34.153 404.087,43.041 C404.087,55.364 408.958,60.904 419.375,60.904 C425.869,60.904 428.165,60.333 429.597,59.278 L429.597,45.903 Z M437.817,66.447 C434.279,67.979 426.73,68.743 420.808,68.743 C403.707,68.743 395.678,60.812 395.678,43.707 C395.678,27.079 403.51,19.249 414.691,19.249 C420.808,19.249 424.438,20.484 426.636,21.923 C427.876,22.686 428.931,23.547 429.597,24.597 L429.597,0.519 L437.817,0.519 L437.817,66.447 Z" id="Fill-9" fill="#D1272D" fill-rule="nonzero"></path>
        <path d="M331.691,24.808 C328.81,27.779 326.093,27.642 322.336,27.691 C319.951,27.72 318.204,30.279 317.063,32.007 C316.026,33.577 315.943,35.09 317.684,35.977 C318.371,36.329 319.311,36.371 320.059,36.169 C320.702,35.997 321.55,34.652 321.713,34.613 C321.093,34.476 320.478,34.345 319.861,34.21 C322.227,37.169 310.838,46.185 319.122,47.823 C320.891,48.171 324.189,47.186 325.141,45.55 C325.611,44.738 324.947,40.766 326.28,44.344 C326.758,45.636 326.793,47.1 328.017,47.873 C328.883,48.425 330.041,48.069 330.72,47.397 C331.676,46.449 332.066,45.418 332.508,44.141 C333.146,42.314 337.001,39.204 339.115,41.39 C340.167,42.475 343.353,41.112 342.196,39.914 C340.105,37.748 337.121,38.028 334.463,39.107 C333.185,39.629 331.555,40.266 330.616,41.345 C329.303,42.856 329.334,45.004 327.911,46.423 C328.81,46.263 329.713,46.103 330.616,45.947 C328.883,44.844 330.025,41.118 327.41,40.549 C325.667,40.172 322.848,40.299 321.93,42.199 C321.797,42.465 321.506,45.058 321.64,45.021 C317.578,46.153 320.776,41.288 321.73,40.198 C323.157,38.561 324.474,34.648 322.945,32.732 C322.512,32.193 321.715,32.183 321.101,32.333 C319.646,32.687 319.329,33.469 318.344,34.544 C319.009,34.304 319.674,34.061 320.338,33.823 C318.606,33.784 322.359,30.203 323.64,30.203 C325.123,30.205 326.616,30.095 328.066,29.777 C330.663,29.21 332.677,27.665 334.501,25.779 C335.974,24.263 332.726,23.741 331.691,24.808" id="Fill-10" fill="#D1272D" fill-rule="nonzero"></path>
        <path d="M332.012,61.344 C331.5,61.401 333.768,57.122 333.881,56.886 C334.568,55.441 334.225,53.656 333.71,52.249 C332.763,49.634 328.908,49.301 326.632,49.258 C323.488,49.192 313.783,51.306 317.264,56.686 C318.323,58.328 319.932,58.447 321.3,59.833 C322.86,61.412 322.82,63.117 324.721,64.395 C326.796,65.785 315.783,67.073 314.855,67.042 C311.222,66.917 307.773,65.615 304.622,63.903 C299.023,60.862 295.319,55.343 293.469,49.395 C292.451,46.135 292.501,42.673 292.824,39.308 C292.901,38.515 294.884,30.692 295.177,30.645 C294.669,30.408 294.166,30.168 293.66,29.929 C294.338,32.265 293.969,34.986 294.622,37.418 C295.007,38.855 296.111,40.346 296.705,41.617 C297.587,43.488 296.865,46.113 296.537,48.074 C295.544,54.048 300.57,57.738 304.692,60.736 C309.974,64.575 309.576,54.997 309.477,52.959 C309.36,50.513 308.633,47.408 306.554,45.818 C301.275,41.776 301.74,38.382 307.263,34.424 C308.24,33.721 316.076,29.629 312.391,27.244 C310.085,25.757 305.916,26.561 303.273,26.317 C297.201,25.751 305.151,21.387 305.52,21.182 C308.082,19.784 310.982,19.483 313.837,19.3 C324.756,18.591 334.154,25.405 337.997,35.387 C341.211,43.748 338.99,56.901 330.745,61.802 C328.788,62.963 331.619,64.014 332.944,63.226 C346.668,55.071 345.097,32.68 333.854,23.399 C327.137,17.857 319.231,16.237 310.701,17.279 C306.593,17.783 298.438,20.437 297.718,25.305 C297.485,26.868 299.043,28.061 300.392,28.323 C302.824,28.8 312.768,28.685 306.545,32.072 C301.542,34.793 296.768,39.567 299.888,45.486 C300.253,46.189 302.448,46.668 302.865,46.871 C306.381,48.577 306.15,53.793 306.197,56.991 C306.229,59.36 306.837,58.41 305.314,57.492 C302.235,55.627 300.853,53.095 299.985,49.623 C299.113,46.131 301.148,42.997 299.454,39.402 C297.714,35.704 298.098,32.701 297.025,29.027 C296.85,28.43 296.053,28.221 295.507,28.307 C292.167,28.835 291.166,33.05 290.242,35.829 C288.354,41.531 289.06,47.89 291.178,53.394 C295.367,64.288 306.689,69.771 317.801,69.364 C321.55,69.228 326.308,68.469 328.267,65.263 C328.501,64.877 328.449,64.014 327.867,63.239 C327.405,62.629 326.82,62.101 326.226,61.315 C325.053,59.775 323.72,57.775 323.129,57.393 C320.057,55.404 321.433,51.987 324.764,51.647 C330.442,51.072 331.678,55.071 329.028,59.458 C327.539,61.928 329.188,63.952 331.682,63.684 C333.507,63.485 334.314,61.094 332.012,61.344" id="Fill-11" fill="#D1272D" fill-rule="nonzero"></path>
    </g>
</svg>